<!DOCTYPE svg PUBLIC "-//W3C//DTD SVG 1.1//EN" "http://www.w3.org/Graphics/SVG/1.1/DTD/svg11.dtd">
<!-- Uploaded to: SVG Repo, www.svgrepo.com, Transformed by: SVG Repo Mixer Tools -->
<svg fill="#fafaef" width="256px" height="256px" viewBox="-3.2 -3.2 38.40 38.40" xmlns="http://www.w3.org/2000/svg" stroke="#fafaef">
<g id="SVGRepo_bgCarrier" stroke-width="0">
<rect x="-3.2" y="-3.2" width="38.40" height="38.40" rx="0" fill="#7ed0ec" strokewidth="0"/>
</g>
<g id="SVGRepo_tracerCarrier" stroke-linecap="round" stroke-linejoin="round"/>
<g id="SVGRepo_iconCarrier">
<path d="M 12 1 L 0 13 L 12 25 L 24 13 L 12 1 z M 12 3.8007812 L 21.199219 13 L 12 22.199219 L 2.8007812 13 L 12 3.8007812 z M 12 8 A 1 1 0 0 0 12 10 A 1 1 0 0 0 12 8 z M 8 12 A 1 1 0 0 0 8 14 A 1 1 0 0 0 8 12 z M 12 12 A 1 1 0 0 0 12 14 A 1 1 0 0 0 12 12 z M 16 12 A 1 1 0 0 0 16 14 A 1 1 0 0 0 16 12 z M 26.800781 13 L 24.800781 15 L 30 15 L 30 27 L 18 27 L 18 21.800781 L 16 23.800781 L 16 29 L 32 29 L 32 13 L 26.800781 13 z M 12 16 A 1 1 0 0 0 12 18 A 1 1 0 0 0 12 16 z M 24 20 A 1 1 0 0 0 24 22 A 1 1 0 0 0 24 20 z"/>
</g>
</svg>